<?xml version="1.0" encoding="UTF-8"?><svg id="Layer_1" xmlns="http://www.w3.org/2000/svg" width="464.53" height="61.85" viewBox="0 0 464.53 61.85"><defs><style>.cls-1{fill:#231f20;}</style></defs><path class="cls-1" d="M5.43,4.15h39.38v11.07h-23.38v9h19.97v10.41h-19.97v21.06H5.43V4.15Z"/><path class="cls-1" d="M63.61,30.45l-13.68-1.44c.52-2.39,1.26-4.27,2.23-5.64.97-1.37,2.37-2.56,4.2-3.57,1.31-.73,3.12-1.29,5.41-1.69,2.3-.4,4.78-.6,7.45-.6,4.29,0,7.73.24,10.34.72,2.6.48,4.77,1.48,6.5,3.01,1.22,1.05,2.18,2.55,2.88,4.48s1.05,3.78,1.05,5.54v16.49c0,1.76.11,3.13.33,4.13.22,1,.71,2.27,1.46,3.81h-13.43c-.54-.96-.89-1.69-1.05-2.2-.16-.5-.33-1.29-.49-2.37-1.88,1.81-3.74,3.09-5.59,3.87-2.53,1.03-5.47,1.55-8.82,1.55-4.45,0-7.83-1.03-10.14-3.09-2.31-2.06-3.46-4.61-3.46-7.63,0-2.84.83-5.17,2.5-7,1.66-1.83,4.73-3.19,9.21-4.08,5.37-1.08,8.85-1.83,10.44-2.27,1.59-.43,3.28-1,5.06-1.71,0-1.76-.36-2.99-1.09-3.69-.73-.7-2-1.05-3.83-1.05-2.34,0-4.1.38-5.27,1.12-.91.59-1.65,1.69-2.21,3.3ZM76.02,37.97c-1.97.7-4.02,1.32-6.15,1.86-2.91.77-4.75,1.54-5.52,2.29-.8.77-1.2,1.65-1.2,2.64,0,1.12.39,2.04,1.18,2.76.79.72,1.94,1.07,3.46,1.07s3.08-.39,4.45-1.16,2.34-1.72,2.92-2.83c.57-1.11.86-2.56.86-4.34v-2.29Z"/><path class="cls-1" d="M96.06,45.32l14.2-1.34c.59,1.69,1.41,2.9,2.46,3.62,1.05.73,2.46,1.09,4.22,1.09,1.92,0,3.41-.41,4.46-1.23.82-.61,1.23-1.37,1.23-2.28,0-1.03-.54-1.83-1.62-2.39-.77-.4-2.82-.89-6.15-1.47-4.97-.87-8.42-1.67-10.35-2.41-1.93-.74-3.56-1.98-4.89-3.74-1.32-1.76-1.99-3.76-1.99-6.01,0-2.46.71-4.58,2.14-6.36,1.43-1.78,3.4-3.11,5.91-3.99,2.51-.88,5.87-1.32,10.09-1.32,4.45,0,7.74.34,9.86,1.02,2.12.68,3.89,1.73,5.31,3.16,1.42,1.43,2.6,3.36,3.53,5.8l-13.57,1.34c-.35-1.2-.94-2.07-1.76-2.64-1.12-.75-2.48-1.12-4.08-1.12s-2.79.29-3.53.86c-.74.57-1.11,1.27-1.11,2.09,0,.91.47,1.6,1.41,2.07.94.47,2.98.89,6.12,1.26,4.76.54,8.3,1.29,10.62,2.25,2.32.96,4.1,2.33,5.33,4.11,1.23,1.78,1.85,3.73,1.85,5.87s-.65,4.25-1.95,6.29c-1.3,2.04-3.35,3.66-6.15,4.86-2.8,1.21-6.62,1.81-11.44,1.81-6.82,0-11.68-.97-14.57-2.92-2.9-1.95-4.75-4.71-5.57-8.3Z"/><path class="cls-1" d="M142.57,4.15h14.31v18.98c1.95-2.02,3.88-3.46,5.8-4.32,1.92-.87,4.2-1.3,6.82-1.3,3.89,0,6.96,1.18,9.19,3.55,2.24,2.37,3.36,6,3.36,10.9v23.73h-14.38v-20.53c0-2.34-.43-4-1.3-4.97-.87-.97-2.09-1.46-3.66-1.46-1.73,0-3.14.66-4.22,1.97-1.08,1.31-1.62,3.67-1.62,7.07v17.93h-14.31V4.15Z"/><path class="cls-1" d="M191.12,4.15h14.31v9.74h-14.31V4.15ZM191.12,18.35h14.31v37.34h-14.31V18.35Z"/><path class="cls-1" d="M212.82,37.13c0-5.7,1.92-10.39,5.77-14.08,3.84-3.69,9.04-5.54,15.57-5.54,7.48,0,13.12,2.17,16.95,6.5,3.07,3.49,4.61,7.79,4.61,12.9,0,5.74-1.9,10.45-5.71,14.12-3.81,3.67-9.08,5.5-15.8,5.5-6,0-10.85-1.52-14.55-4.57-4.55-3.77-6.82-8.72-6.82-14.84ZM227.16,37.09c0,3.33.67,5.79,2.02,7.38,1.35,1.59,3.04,2.39,5.08,2.39s3.76-.79,5.08-2.36c1.32-1.57,1.99-4.09,1.99-7.56,0-3.23-.67-5.64-2-7.22s-2.99-2.37-4.96-2.37c-2.09,0-3.81.8-5.17,2.41-1.36,1.61-2.04,4.05-2.04,7.33Z"/><path class="cls-1" d="M262.6,18.35h13.32v6.08c1.99-2.48,4.01-4.26,6.05-5.33,2.04-1.07,4.52-1.6,7.45-1.6,3.96,0,7.06,1.18,9.3,3.53,2.24,2.36,3.36,5.99,3.36,10.92v23.73h-14.38v-20.53c0-2.34-.43-4-1.3-4.97-.87-.97-2.09-1.46-3.66-1.46-1.73,0-3.14.66-4.22,1.97-1.08,1.31-1.62,3.67-1.62,7.07v17.93h-14.31V18.35Z"/><path class="cls-1" d="M343.38,55.69v-20.92h-1.41c-1.45,0-2.75.4-3.9,1.2-.84.61-1.8,1.93-2.88,3.97l-8.51,15.75h-18l7.71-14.93c.37-.75,1.12-1.82,2.23-3.2,1.11-1.38,1.96-2.29,2.55-2.71.87-.63,2.25-1.27,4.15-1.9-2.37-.54-4.23-1.22-5.59-2.04-2.13-1.29-3.81-2.97-5.03-5.04-1.22-2.07-1.83-4.54-1.83-7.4,0-3.28.8-6.06,2.39-8.35,1.59-2.29,3.69-3.85,6.29-4.69s6.36-1.27,11.29-1.27h26.54v51.54h-16ZM343.38,14.56h-7c-2.91,0-4.89.45-5.94,1.34-1.05.89-1.58,2.17-1.58,3.83,0,1.12.33,2.12,1,2.99.67.87,1.53,1.41,2.58,1.62,2.09.47,3.49.7,4.22.7h6.71v-10.48Z"/><path class="cls-1" d="M398.2,4.15h15.89v30.71c0,3.04-.47,5.92-1.42,8.62-.95,2.71-2.44,5.07-4.46,7.1-2.03,2.03-4.15,3.45-6.38,4.27-3.09,1.15-6.81,1.72-11.14,1.72-2.51,0-5.24-.18-8.21-.53-2.97-.35-5.44-1.05-7.44-2.09-1.99-1.04-3.81-2.52-5.47-4.44s-2.78-3.9-3.39-5.94c-.98-3.28-1.48-6.18-1.48-8.71V4.15h15.89v31.44c0,2.81.78,5.01,2.34,6.59,1.56,1.58,3.72,2.37,6.49,2.37s4.89-.78,6.45-2.34c1.56-1.56,2.34-3.76,2.34-6.62V4.15Z"/><path class="cls-1" d="M421.16,45.32l14.2-1.34c.59,1.69,1.41,2.9,2.46,3.62,1.05.73,2.46,1.09,4.22,1.09,1.92,0,3.41-.41,4.46-1.23.82-.61,1.23-1.37,1.23-2.28,0-1.03-.54-1.83-1.62-2.39-.77-.4-2.82-.89-6.15-1.47-4.97-.87-8.42-1.67-10.35-2.41-1.93-.74-3.56-1.98-4.89-3.74-1.32-1.76-1.99-3.76-1.99-6.01,0-2.46.71-4.58,2.14-6.36,1.43-1.78,3.4-3.11,5.91-3.99,2.51-.88,5.87-1.32,10.09-1.32,4.45,0,7.74.34,9.86,1.02,2.12.68,3.89,1.73,5.31,3.16,1.42,1.43,2.6,3.36,3.53,5.8l-13.57,1.34c-.35-1.2-.94-2.07-1.76-2.64-1.12-.75-2.48-1.12-4.08-1.12s-2.79.29-3.53.86c-.74.57-1.11,1.27-1.11,2.09,0,.91.47,1.6,1.41,2.07.94.47,2.98.89,6.12,1.26,4.76.54,8.3,1.29,10.62,2.25,2.32.96,4.1,2.33,5.33,4.11,1.23,1.78,1.85,3.73,1.85,5.87s-.65,4.25-1.95,6.29c-1.3,2.04-3.35,3.66-6.15,4.86-2.8,1.21-6.62,1.81-11.44,1.81-6.82,0-11.68-.97-14.57-2.92-2.9-1.95-4.75-4.71-5.57-8.3Z"/></svg>